HIERARCHY
ROOT SpineBase
{
  OFFSET 0.000000 0.000000 0.000000
  CHANNELS 6 Xposition Yposition Zposition Zrotation Xrotation Yrotation
  JOINT SpineMid
  {
    OFFSET -0.000000 29.622991 0.000000
    CHANNELS 3 Zrotation Xrotation Yrotation
    JOINT SpineShoulder
    {
      OFFSET -0.201542 21.972052 -0.896266
      CHANNELS 3 Zrotation Xrotation Yrotation
      JOINT Neck
      {
        OFFSET -0.128924 7.313468 -0.661960
        CHANNELS 3 Zrotation Xrotation Yrotation
        JOINT Head
        {
          OFFSET -3.275913 15.407692 0.090575
          CHANNELS 3 Zrotation Xrotation Yrotation
          End Site
          {
            OFFSET 0 0 0
          }
        }
      }
      JOINT ShoulderLeft
      {
        OFFSET -16.109044 -4.227472 6.337727
        CHANNELS 3 Zrotation Xrotation Yrotation
        JOINT ElbowLeft
        {
          OFFSET -1.304540 -25.040380 2.729649
          CHANNELS 3 Zrotation Xrotation Yrotation
          JOINT WristLeft
          {
            OFFSET 0.738867 -22.807953 -5.844125
            CHANNELS 3 Zrotation Xrotation Yrotation
            JOINT HandLeft
            {
              OFFSET 2.818107 -2.429303 -2.681555
              CHANNELS 3 Zrotation Xrotation Yrotation
              JOINT HandTipLeft
              {
                OFFSET 1.928296 -5.461214 -2.717041
                CHANNELS 3 Zrotation Xrotation Yrotation
                End Site
                {
                  OFFSET 0 0 0
                }
              }
              JOINT ThumbLeft
              {
                OFFSET -0.883408 -0.390364 -0.656143
                CHANNELS 3 Zrotation Xrotation Yrotation
                End Site
                {
                  OFFSET 0 0 0
                }
              }
            }
          }
        }
      }
      JOINT ShoulderRight
      {
        OFFSET 14.736828 -3.674061 -8.640810
        CHANNELS 3 Zrotation Xrotation Yrotation
        JOINT ElbowRight
        {
          OFFSET 3.577602 -25.794066 -3.895884
          CHANNELS 3 Zrotation Xrotation Yrotation
          JOINT WristRight
          {
            OFFSET -4.501134 -24.891735 -7.661964
            CHANNELS 3 Zrotation Xrotation Yrotation
            JOINT HandRight
            {
              OFFSET -2.752255 -6.125966 -2.410591
              CHANNELS 3 Zrotation Xrotation Yrotation
              JOINT HandTipRight
              {
                OFFSET -2.030168 -7.811200 -3.038252
                CHANNELS 3 Zrotation Xrotation Yrotation
                End Site
                {
                  OFFSET 0 0 0
                }
              }
              JOINT ThumbRight
              {
                OFFSET 5.178332 0.775643 0.067541
                CHANNELS 3 Zrotation Xrotation Yrotation
                End Site
                {
                  OFFSET 0 0 0
                }
              }
            }
          }
        }
      }
    }
  }
  JOINT HipLeft
  {
    OFFSET -6.807858 -0.015818 -0.940908
    CHANNELS 3 Zrotation Xrotation Yrotation
    JOINT KneeLeft
    {
      OFFSET 2.713264 -33.504478 5.076065
      CHANNELS 3 Zrotation Xrotation Yrotation
      JOINT AnkleLeft
      {
        OFFSET 7.757430 -34.074012 10.268892
        CHANNELS 3 Zrotation Xrotation Yrotation
        JOINT FootLeft
        {
          OFFSET -4.163807 -6.656823 0.725394
          CHANNELS 3 Zrotation Xrotation Yrotation
          End Site
          {
            OFFSET 0 0 0
          }
        }
      }
    }
  }
  JOINT HipRight
  {
    OFFSET 6.360341 2.139432 -6.114583
    CHANNELS 3 Zrotation Xrotation Yrotation
    JOINT KneeRight
    {
      OFFSET 4.313919 -31.714756 -2.190582
      CHANNELS 3 Zrotation Xrotation Yrotation
      JOINT AnkleRight
      {
        OFFSET 4.706286 -35.091583 14.861986
        CHANNELS 3 Zrotation Xrotation Yrotation
        JOINT FootRight
        {
          OFFSET -4.109750 -5.587962 -4.231004
          CHANNELS 3 Zrotation Xrotation Yrotation
          End Site
          {
            OFFSET 0 0 0
          }
        }
      }
    }
  }
}
MOTION
Frames: 16
Frame Time: 0.033333
20.111619 74.306848 322.804225 0.000000 0.000000 21.449448 -0.000000 0.000000 -21.449448 -0.000000 0.000000 0.000000 -0.000000 0.000000 0.000000 0.000000 0.000000 0.000000 -0.000000 0.000000 0.000000 -0.000000 0.000000 0.000000 -0.000000 0.000000 0.000000 -0.000000 0.000000 0.000000 0.000000 0.000000 0.000000 0.000000 0.000000 0.000000 -0.000000 0.000000 0.000000 -0.000000 0.000000 0.000000 -0.000000 0.000000 0.000000 -0.000000 0.000000 0.000000 0.000000 0.000000 0.000000 0.000000 0.000000 0.000000 -0.000000 0.000000 -21.449448 -0.000000 0.000000 0.000000 -0.000000 0.000000 0.000000 0.000000 0.000000 0.000000 -0.000000 0.000000 -21.449448 -0.000000 0.000000 0.000000 -0.000000 0.000000 0.000000 0.000000 0.000000 0.000000
20.123317 74.386505 322.788214 -0.113528 -0.108581 21.888771 0.145823 0.058429 -21.888953 -0.000000 0.000000 0.000000 -0.000000 0.000000 0.000000 0.000000 0.000000 0.000000 -1.517926 -0.774067 -0.135212 -0.031129 0.357079 0.513727 -16.755995 -13.913786 1.476697 17.932330 11.455120 -6.129303 0.000000 0.000000 0.000000 0.000000 0.000000 0.000000 0.801699 -0.152226 -0.141029 -1.526057 -0.260388 0.439531 0.727128 0.405038 -0.299651 -2.393333 0.420747 0.824812 0.000000 0.000000 0.000000 0.000000 0.000000 0.000000 0.145823 0.058429 -21.888953 -0.000000 0.000000 0.000000 0.434283 6.588267 -4.137116 0.000000 0.000000 0.000000 0.587225 1.299801 -21.711567 0.049106 -1.316584 -0.182054 -0.719324 2.247925 -1.073775 0.000000 0.000000 0.000000
20.135319 74.450190 322.784834 -0.205698 -0.238064 22.272030 0.280580 0.142341 -22.272806 -0.000000 0.000000 0.000000 -0.138638 -0.994195 -0.211839 0.000000 0.000000 0.000000 -2.859107 -1.530823 -0.269441 0.053671 0.742159 0.942892 -27.718499 -22.589630 0.000437 30.006713 17.239250 -12.042827 0.000000 0.000000 0.000000 0.000000 0.000000 0.000000 1.530313 -0.333599 -0.272578 -2.735336 -0.524970 0.804076 1.546907 -0.067737 -0.264641 -4.547093 1.407785 1.311105 0.000000 0.000000 0.000000 0.000000 0.000000 0.000000 0.280580 0.142341 -22.272806 -0.000000 0.000000 0.000000 1.100975 11.563519 -7.364612 0.000000 0.000000 0.000000 1.127449 2.464800 -21.949805 0.050515 -3.562013 -0.498686 -1.350004 5.693513 -2.036636 0.000000 0.000000 0.000000
20.147626 74.497902 322.794084 -0.276536 -0.388465 22.598428 -0.485690 -0.007746 -22.633141 -0.240413 0.008862 -0.061102 0.760237 -0.914811 -0.223853 0.000000 0.000000 0.000000 -3.026362 -1.692561 -0.262688 0.224193 1.150370 1.280488 -34.416655 -27.352140 -1.852864 37.181428 19.806846 -16.102529 0.000000 0.000000 0.000000 0.000000 0.000000 0.000000 3.152694 0.033748 -0.324880 -3.663012 -0.800695 1.106637 1.938779 -0.480491 -0.095531 -5.903148 2.055300 1.608429 0.000000 0.000000 0.000000 0.000000 0.000000 0.000000 0.404582 0.252369 -22.600256 -0.000000 0.000000 0.000000 1.709717 14.784713 -9.537218 0.000000 0.000000 0.000000 1.609063 3.476957 -22.163492 0.060350 -4.891968 -0.681287 -1.910911 8.475139 -3.162921 0.000000 0.000000 0.000000
20.160236 74.529641 322.815964 -0.326060 -0.559805 22.867208 -0.585311 -0.037564 -22.909409 -0.283514 0.004208 -0.072717 0.870983 -1.163105 -0.312057 0.000000 0.000000 0.000000 -3.751247 -2.142876 -0.324918 0.453684 1.575436 1.520549 -38.450316 -29.950652 -3.307249 41.299885 20.982442 -18.595224 0.000000 0.000000 0.000000 0.000000 0.000000 0.000000 3.920124 0.039551 -0.440499 -4.328751 -1.096918 1.355554 2.108231 -1.113094 0.260851 -6.647950 2.668350 1.657313 0.000000 0.000000 0.000000 0.000000 0.000000 0.000000 0.517983 0.389090 -22.870559 -0.000000 0.000000 0.000000 2.054278 16.264189 -10.565488 0.000000 0.000000 0.000000 2.021466 4.321054 -22.351235 0.062301 -5.912192 -0.818205 -2.379265 11.173430 -4.341769 0.000000 0.000000 0.000000
20.173151 74.545408 322.850475 -0.354281 -0.752113 23.077642 -0.654540 -0.082538 -23.125357 -0.307840 -0.004190 -0.080114 0.910567 -1.381910 -0.406148 0.000000 0.000000 0.000000 -4.295032 -2.519144 -0.363371 0.720793 2.010191 1.658060 -40.803755 -31.341271 -4.264390 43.578645 21.576670 -20.000829 0.000000 0.000000 0.000000 0.000000 0.000000 0.000000 4.552015 0.041118 -0.560373 -4.739133 -1.426009 1.555626 2.067209 -1.936883 0.797567 -6.782102 3.229682 1.439231 0.000000 0.000000 0.000000 0.000000 0.000000 0.000000 0.620766 0.553031 -23.082963 -0.000000 0.000000 0.000000 2.034388 16.025587 -10.401652 0.000000 0.000000 0.000000 2.355453 4.985123 -22.511136 0.057963 -6.615636 -0.908335 -2.747717 13.755857 -5.560229 0.000000 0.000000 0.000000
20.192414 74.535624 322.917782 -0.372748 -0.958262 23.280741 -0.712720 -0.167535 -23.333372 -0.300805 -0.039835 -0.084184 0.901158 -1.658917 -0.533585 0.000000 0.000000 0.000000 -4.587937 -2.637714 -0.362166 1.069607 2.712519 1.681513 -44.795590 -33.584624 -5.975986 48.332670 23.414155 -22.531000 0.000000 0.000000 0.000000 0.000000 0.000000 0.000000 4.194283 0.474446 -0.501323 -3.584256 -2.434583 1.414954 2.823439 -3.676832 1.518979 -5.388169 3.062989 0.446492 0.000000 0.000000 0.000000 0.000000 0.000000 0.000000 0.721189 0.732878 -23.288471 -0.000000 0.000000 0.000000 1.103397 12.257157 -7.821064 0.000000 0.000000 0.000000 2.282728 4.975348 -22.736512 0.316009 -6.365334 -0.799278 -3.291592 11.069570 -3.596192 0.000000 0.000000 0.000000
20.206778 74.517739 322.989272 -0.367148 -1.181953 23.380383 -0.724849 -0.260749 -23.435258 -0.279614 -0.063210 -0.083429 0.796824 -1.863606 -0.650412 0.000000 0.000000 0.000000 -4.478321 -2.665258 -0.310167 1.755408 3.286005 1.401309 -38.819172 -30.077989 -3.146553 41.363546 20.970679 -18.660138 0.000000 0.000000 0.000000 0.000000 0.000000 0.000000 4.778532 0.379890 -0.677380 -3.625731 -2.761690 1.555022 1.811959 -4.522722 2.512584 -3.769756 2.986512 -0.550634 0.000000 0.000000 0.000000 0.000000 0.000000 0.000000 0.806130 0.939151 -23.390777 0.629622 0.748982 0.356410 0.067151 5.326693 -4.158853 0.000000 0.000000 0.000000 2.603867 5.671441 -22.792094 0.414612 -6.917560 -0.806880 -3.817151 16.674704 -6.755287 0.000000 0.000000 0.000000
20.221463 74.506967 323.061989 -0.329498 -1.423863 23.418064 -0.690088 -0.355497 -23.471960 -0.248781 -0.065845 -0.077707 0.640857 -2.033440 -0.761430 0.000000 0.000000 0.000000 -4.505962 -2.924953 -0.272207 2.091134 3.307004 1.192443 -38.596182 -29.710745 -3.943195 40.556264 21.945387 -17.375936 0.000000 0.000000 0.000000 0.000000 0.000000 0.000000 5.554231 0.117313 -0.922413 -3.981238 -2.973384 1.785608 0.637178 -5.848692 3.830211 -2.853852 3.224620 -1.390670 0.000000 0.000000 0.000000 0.000000 0.000000 0.000000 0.868400 1.175551 -23.431068 0.738691 0.892934 0.420528 0.105778 -1.144131 -0.166299 0.000000 0.000000 0.000000 2.666655 5.568825 -22.885816 0.219954 -6.383321 -0.771641 -3.489365 23.526191 -11.072868 0.000000 0.000000 0.000000
20.234471 74.488531 323.129229 -0.254407 -1.701482 23.302006 -0.621088 -0.429855 -23.351749 -0.224193 -0.049142 -0.069151 0.426889 -1.934997 -0.813627 0.000000 0.000000 0.000000 -4.410765 -3.147824 -0.219093 2.430098 2.437699 0.866247 -35.031886 -26.681705 -2.778258 36.257349 20.200567 -14.854809 0.000000 0.000000 0.000000 0.000000 0.000000 0.000000 6.545188 -0.311571 -1.228515 -4.782431 -2.954550 2.127806 -0.896414 -7.174263 5.270419 -1.233285 4.191070 -2.785316 0.000000 0.000000 0.000000 0.000000 0.000000 0.000000 0.906950 1.461972 -23.317355 0.802769 0.947199 0.451349 1.293043 -8.731010 4.838020 0.000000 0.000000 0.000000 2.726072 5.693133 -22.805298 0.231563 -6.005157 -0.669000 -3.251040 24.332880 -12.008373 0.000000 0.000000 0.000000
20.240403 74.439324 323.171798 -0.122475 -2.004164 23.140554 -0.528506 -0.430765 -23.181595 -0.208177 -0.005136 -0.057959 0.158719 -1.989086 -0.884818 0.000000 0.000000 0.000000 -4.174771 -3.479033 -0.154621 2.730566 1.576271 0.485048 -29.384657 -21.730429 -1.156338 29.233925 18.247443 -10.264419 0.000000 0.000000 0.000000 0.000000 0.000000 0.000000 5.998069 -0.404069 -1.238881 -3.538681 -3.563728 2.032213 -0.150899 -9.151998 6.299697 -0.969259 6.822707 -4.165844 0.000000 0.000000 0.000000 0.000000 0.000000 0.000000 0.900550 1.794698 -23.156802 0.770828 0.918162 0.435551 -1.604390 -2.424956 0.384640 0.000000 0.000000 0.000000 2.758579 5.870638 -22.680291 0.044361 -5.681598 -0.665872 -2.029097 25.365639 -13.709811 0.000000 0.000000 0.000000
20.221119 74.325933 323.167363 0.027112 -2.366094 22.955063 -0.458625 -0.407778 -22.986964 -0.210739 0.035217 -0.049238 -0.066353 -1.885194 -0.928521 0.000000 0.000000 0.000000 -3.697921 -3.727892 -0.058074 2.863981 0.359241 0.073769 -17.492167 -9.327502 3.291303 16.051138 9.749304 -5.498342 0.000000 0.000000 0.000000 0.000000 0.000000 0.000000 6.186260 -0.848737 -1.406152 -3.536714 -3.410229 2.205153 0.210401 -10.966700 7.319152 -0.546754 10.924426 -5.833990 0.000000 0.000000 0.000000 0.000000 0.000000 0.000000 0.898264 2.189212 -22.971667 0.575061 0.888880 0.371660 -2.001503 -4.237808 1.486757 0.000000 0.000000 0.000000 2.888953 6.079210 -22.545179 -0.423301 -5.502250 -0.769587 1.696705 25.140047 -16.721275 0.000000 0.000000 0.000000
20.120164 74.225527 323.190844 0.140914 -2.757304 23.197998 -0.421779 -0.335385 -23.223408 -0.231613 0.081338 -0.045637 -0.125743 -1.525547 -0.909002 0.000000 0.000000 0.000000 -2.362638 -4.243396 0.139897 1.689575 -0.903667 -0.213871 -13.268469 -0.966688 7.771650 15.062722 8.650888 -7.101475 0.000000 0.000000 0.000000 0.000000 0.000000 0.000000 5.902517 -1.566507 -1.494631 -2.549143 -3.490877 2.287896 0.589639 -13.194219 8.826495 3.036330 13.680251 -9.775102 0.000000 0.000000 0.000000 0.000000 0.000000 0.000000 0.729217 1.795148 -23.258151 0.105278 2.104860 0.403108 4.251756 -6.753447 3.932557 0.000000 0.000000 0.000000 3.679016 6.977294 -22.803573 -1.358118 -6.192074 -1.100577 -3.092795 22.554389 -10.409991 0.000000 0.000000 0.000000
20.033620 73.993545 323.098376 0.248919 -3.270236 22.877100 -0.385476 -0.229102 -22.896379 -0.257357 0.133134 -0.043884 -0.159302 -1.086326 -0.886412 0.000000 0.000000 0.000000 -1.868699 -4.908903 0.253697 1.435084 -1.111390 -0.445581 -9.260991 4.464474 7.485853 10.569190 8.607236 -4.698003 0.000000 0.000000 0.000000 0.000000 0.000000 0.000000 6.177260 -2.063029 -1.662113 -3.754076 -2.416409 2.698933 2.174604 -14.981698 9.145949 5.819813 14.659986 -12.579496 0.000000 0.000000 0.000000 0.000000 0.000000 0.000000 0.741592 2.148649 -22.950938 0.234686 2.254946 0.444554 6.916369 -2.201982 1.248906 0.000000 0.000000 0.000000 4.172238 7.365156 -22.571197 -2.583878 -6.542427 -1.543334 -5.938401 21.934905 -6.506226 0.000000 0.000000 0.000000
19.943799 73.631563 322.921519 0.235367 -3.857099 22.309529 -0.318404 -0.033994 -22.330551 -0.312271 0.202804 -0.049150 0.139211 -0.585584 -0.839927 0.000000 0.000000 0.000000 -1.748050 -5.434252 0.306513 1.471141 -0.097750 -0.510461 -3.341131 4.511869 -0.732534 0.107273 9.116352 4.901364 0.000000 0.000000 0.000000 0.000000 0.000000 0.000000 6.347143 -2.589619 -1.773667 -4.028439 -2.090167 3.013977 3.014481 -13.677817 8.219974 5.192374 12.946538 -11.632267 0.000000 0.000000 0.000000 0.000000 0.000000 0.000000 0.863389 2.416710 -22.408078 0.583307 2.040873 0.449721 8.066845 8.416945 -6.121833 0.000000 0.000000 0.000000 4.139301 7.171457 -22.115967 -2.944412 -6.100900 -1.590431 -9.559356 14.529537 1.145340 0.000000 0.000000 0.000000
20.048350 73.182831 322.523936 0.383999 -4.374551 20.679296 -0.354090 0.058998 -20.690232 -0.317724 0.184284 -0.048540 0.029269 -0.059323 -0.818285 0.000000 0.000000 0.000000 -3.097147 -4.622639 0.171370 3.896303 0.796409 -0.797446 -6.434490 0.120766 -2.118639 -5.539009 5.428719 8.947279 0.000000 0.000000 0.000000 0.000000 0.000000 0.000000 8.086631 -2.284321 -2.134087 -6.568610 -0.684626 3.367416 4.300691 -12.331783 6.519854 5.657397 12.518824 -11.307756 0.000000 0.000000 0.000000 0.000000 0.000000 0.000000 1.187340 4.228079 -20.708460 -0.000000 0.000000 0.000000 12.884174 22.793037 -17.114243 0.000000 0.000000 0.000000 3.695600 6.797751 -20.601378 -3.473123 -5.380662 -1.671474 -9.679159 12.945698 2.901611 0.000000 0.000000 0.000000
